<?xml version="1.0" encoding="utf-8"?>
<!-- Generator: Adobe Illustrator 19.0.0, SVG Export Plug-In . SVG Version: 6.00 Build 0)  -->
<svg version="1.1" id="レイヤー_1" xmlns="http://www.w3.org/2000/svg" xmlns:xlink="http://www.w3.org/1999/xlink" x="0px"
	 y="0px" viewBox="0 0 129.8 189.8" style="enable-background:new 0 0 129.8 189.8;" xml:space="preserve">
<style type="text/css">
	.st0{fill:#0071BC;}
	.st1{fill:#29ABE2;}
	.st2{fill:#FCEE21;}
</style>
<g id="XMLID_3_">
	<path id="XMLID_7_" class="st0" d="M12.7,173c-0.6,0-1.3-0.1-2-0.2c-5.4-1.1-8.9-6.3-7.8-11.7C3.5,158,18.2,87.1,87,3.6
		c3.5-4.3,9.8-4.9,14.1-1.4c4.3,3.5,4.9,9.8,1.4,14.1C37.1,95.7,22.7,164.3,22.5,164.9C21.6,169.7,17.4,173,12.7,173z"/>
	<path id="XMLID_8_" class="st0" d="M16.2,173.3c-0.9,0-1.9-0.1-2.8-0.4c-5.3-1.5-8.3-7.1-6.8-12.4C7.4,157.8,26.5,94.1,96,23.4
		c3.9-3.9,10.2-4,14.1-0.1c3.9,3.9,4,10.2,0.1,14.1c-66,67.2-84.3,128.1-84.5,128.7C24.5,170.4,20.5,173.3,16.2,173.3z"/>
	<path id="XMLID_9_" class="st0" d="M18.6,174c-1.2,0-2.4-0.2-3.6-0.7c-5.1-2-7.7-7.8-5.7-12.9c0.9-2.4,24-60.4,94.7-120.7
		c4.2-3.6,10.5-3.1,14.1,1.1c3.6,4.2,3.1,10.5-1.1,14.1C50,112,28.1,167.1,27.9,167.6C26.3,171.6,22.6,174,18.6,174z"/>
	<path id="XMLID_10_" class="st0" d="M21.2,175.2c-1.5,0-3-0.3-4.4-1c-4.9-2.4-7-8.4-4.5-13.4c1.1-2.2,26.9-53.5,96.5-103.1
		c4.5-3.2,10.7-2.2,13.9,2.3c3.2,4.5,2.2,10.7-2.3,13.9c-65.2,46.5-89.9,95.2-90.2,95.7C28.4,173.2,24.9,175.2,21.2,175.2z"/>
	<path id="XMLID_11_" class="st0" d="M23,176.7c-1.8,0-3.6-0.5-5.2-1.5c-4.7-2.9-6.2-9-3.4-13.7c1.2-1.9,29.4-47.6,98.2-88.1
		c4.8-2.8,10.9-1.2,13.7,3.5c2.8,4.8,1.2,10.9-3.5,13.7c-64.2,37.8-91,80.9-91.3,81.3C29.7,175,26.4,176.7,23,176.7z"/>
	<path id="XMLID_5_" class="st0" d="M24.4,178.4c-2.1,0-4.1-0.6-5.9-1.9c-4.5-3.3-5.4-9.5-2.2-14c1.3-1.7,31.4-42.2,99.2-74.5
		c5-2.4,11-0.3,13.3,4.7c2.4,5,0.3,11-4.7,13.3c-63.3,30.2-91.4,67.9-91.7,68.3C30.5,177,27.4,178.4,24.4,178.4z"/>
</g>
<g id="XMLID_12_">
	<circle id="XMLID_1_" class="st1" cx="54.3" cy="88.9" r="54.3"/>
	<path id="XMLID_2_" class="st2" d="M48.8,89.2c0.8-1.6,3-1.7,4-0.2l11.6,17.8l13.2,20.2c0.4,0.6,0.5,1.4,0.2,2.1L55,188.4
		c-0.7,1.9-3.5,2-4.3,0l-22.3-56.6c-0.2-0.6-0.2-1.3,0.1-1.9l10.8-21.7L48.8,89.2z"/>
	<path id="XMLID_38_" d="M31.7,103.9c-0.8,0-1.5-0.4-2-1C24.9,96.3,19,91.7,12.1,89c-1.3-0.5-1.9-2-1.4-3.2c0.5-1.3,2-1.9,3.2-1.4
		c7.8,3,14.4,8.3,19.8,15.6c0.8,1.1,0.6,2.7-0.5,3.5C32.7,103.7,32.2,103.9,31.7,103.9z"/>
	<path id="XMLID_39_" d="M73,102.9c-0.5,0-1-0.1-1.4-0.4c-1.2-0.8-1.5-2.3-0.7-3.5c6-9.1,14-13,23.7-11.7c1.4,0.2,2.3,1.4,2.1,2.8
		c-0.2,1.4-1.5,2.3-2.8,2.1c-7.7-1.1-13.9,2.1-18.8,9.5C74.6,102.5,73.8,102.9,73,102.9z"/>
</g>
</svg>
