<?xml version="1.0" encoding="utf-8"?>
<!-- Generator: Adobe Illustrator 19.0.0, SVG Export Plug-In . SVG Version: 6.00 Build 0)  -->
<svg version="1.1" id="レイヤー_1" xmlns="http://www.w3.org/2000/svg" xmlns:xlink="http://www.w3.org/1999/xlink" x="0px"
	 y="0px" viewBox="0 0 100 100" style="enable-background:new 0 0 100 100;" xml:space="preserve">
<style type="text/css">
	.st0{fill:#3E2B22;}
	.st1{fill:#EFFF00;}
	.st2{fill:#CCCCCC;}
	.st3{fill:#42210B;}
</style>
<g id="XMLID_4_">
	<path id="XMLID_12_" class="st0" d="M70,53.5c0,1.9-1.6,3.5-3.5,3.5h-33c-1.9,0-3.5-1.6-3.5-3.5v0c0-1.9,1.6-3.5,3.5-3.5h33
		C68.4,50,70,51.6,70,53.5L70,53.5z"/>
	<path id="XMLID_15_" class="st0" d="M67,61.7c0,1.8-1.5,3.3-3.3,3.3H35.3c-1.8,0-3.3-1.5-3.3-3.3v-0.4c0-1.8,1.5-3.3,3.3-3.3h28.4
		c1.8,0,3.3,1.5,3.3,3.3V61.7z"/>
	<path id="XMLID_14_" class="st0" d="M65,70.9c0,1.7-1.4,3.1-3.1,3.1H38.1c-1.7,0-3.1-1.4-3.1-3.1v-0.7c0-1.7,1.4-3.1,3.1-3.1h23.7
		c1.7,0,3.1,1.4,3.1,3.1V70.9z"/>
	<path id="XMLID_13_" class="st0" d="M62,79.1c0,1.6-1.3,2.9-2.9,2.9H39.9c-1.6,0-2.9-1.3-2.9-2.9v-1.1c0-1.6,1.3-2.9,2.9-2.9h19.1
		c1.6,0,2.9,1.3,2.9,2.9V79.1z"/>
	<path id="XMLID_11_" class="st0" d="M60,87.2c0,1.5-1.2,2.8-2.8,2.8H42.8c-1.5,0-2.8-1.2-2.8-2.8v-1.5c0-1.5,1.2-2.8,2.8-2.8h14.5
		c1.5,0,2.8,1.2,2.8,2.8V87.2z"/>
</g>
<path id="XMLID_16_" class="st1" d="M65.1,48H35.9c-1.6,0-2.9-1.3-2.9-2.9v-1.1c0-1.6,1.3-2.9,2.9-2.9h29.1c1.6,0,2.9,1.3,2.9,2.9
	v1.1C68,46.7,66.7,48,65.1,48z"/>
<path id="XMLID_32_" class="st0" d="M58,39.3H42c-2,0-3.7-1.6-3.7-3.7v0c0-2,1.6-3.7,3.7-3.7h16c2,0,3.7,1.6,3.7,3.7v0
	C61.7,37.6,60,39.3,58,39.3z"/>
<g id="XMLID_17_">
	<circle id="XMLID_19_" class="st2" cx="10.7" cy="42.2" r="7.7"/>
	<polygon id="XMLID_18_" class="st2" points="10.6,50 17.3,38.4 24,50 	"/>
</g>
<g id="XMLID_29_">
	<circle id="XMLID_31_" class="st2" cx="10.7" cy="64.9" r="7.7"/>
	<polygon id="XMLID_30_" class="st2" points="10.6,57 17.3,68.6 24,57 	"/>
</g>
<g id="XMLID_27_">
	<circle id="XMLID_33_" class="st2" cx="89.3" cy="64.9" r="7.7"/>
	<polygon id="XMLID_28_" class="st2" points="89.4,57 82.7,68.6 76,57 	"/>
</g>
<g id="XMLID_23_">
	<circle id="XMLID_25_" class="st2" cx="89.3" cy="42.2" r="7.7"/>
	<polygon id="XMLID_24_" class="st2" points="89.4,50 82.7,38.4 76,50 	"/>
</g>
<path id="XMLID_38_" class="st3" d="M38.8,16.7c3.7,0.7,6.3,4,6.2,7.7c0.1-0.3,0.2-0.6,0.2-1c0.7-4.1-2-8-6.1-8.7
	c-4.1-0.7-8,2-8.7,6.1c-0.1,0.3-0.1,0.7-0.1,1C31.4,18.3,35,16,38.8,16.7z"/>
<path id="XMLID_35_" class="st3" d="M58.9,16.9c3.7-0.7,7.3,1.6,8.4,5.1c0-0.3,0-0.7-0.1-1c-0.7-4.1-4.6-6.8-8.7-6.1
	c-4.1,0.7-6.8,4.6-6.1,8.7c0.1,0.3,0.1,0.7,0.2,1C52.6,20.9,55.2,17.5,58.9,16.9z"/>
</svg>
